#!OML:ASF H:\Terrain\Patient Classification 1\Takeo\Monday\TakeoMonday.ASF
:FULLY-SPECIFIED
:DEGREES
2166
root 9.1512 17.751 -0.789149 -6.40553 -15.9477 0.122539
lowerback 2.91824 -0.21508 4.13692
upperback 1.70621 -0.189915 0.86907
thorax 0.106225 -0.0724324 -1.42138
lowerneck -9.49953 5.6551 1.28274
upperneck 9.04339 7.84071 -3.75249
head 4.46179 3.68461 -0.833137
rclavicle -2.18663e-015 0
rhumerus -41.2932 -1.93863 -85.6658
rradius 32.865
rwrist -16.7165
rhand -26.8545 22.4679
rfingers 7.12502
rthumb -0.279597 -7.51165
lclavicle -2.18663e-015 0
lhumerus -35.3177 8.59573 88.1526
lradius 26.7399
lwrist 21.693
lhand -28.8346 14.4972
lfingers 7.12502
lthumb -2.19195 44.4656
rfemur 8.03816 0.0227387 22.5353
rtibia 15.7818
rfoot -16.8984 -15.4083
rtoes 2.08601
lfemur 1.61193 1.83339 -22.7348
ltibia 23.0288
lfoot -15.488 18.3594
ltoes -9.53852
2167
root 9.15435 17.7401 -0.782706 -6.46592 -16.0872 0.232718
lowerback 2.84034 -0.175381 4.09365
upperback 1.80406 -0.145402 0.825882
thorax 0.252761 -0.0464117 -1.44297
lowerneck -9.74389 5.70575 1.61044
upperneck 9.02588 7.9098 -4.17974
head 4.52955 3.70095 -1.00211
rclavicle -5.47776e-014 -1.66979e-014
rhumerus -41.1773 -2.09776 -85.7363
rradius 32.9468
rwrist -16.9165
rhand -27.0087 22.8547
rfingers 7.12502
rthumb -0.428502 -7.12465
lclavicle -5.47776e-014 -1.66979e-014
lhumerus -35.0617 7.93826 88.4657
lradius 26.8285
lwrist 22.3809
lhand -28.4263 14.9982
lfingers 7.12502
lthumb -1.79759 44.9704
rfemur 7.88235 0.0343987 22.3691
rtibia 16.1925
rfoot -17.1203 -15.2239
rtoes 3.18805
lfemur 1.82839 1.84838 -22.898
ltibia 22.8304
lfoot -15.4157 18.599
ltoes -10.044
2168
root 9.15917 17.743 -0.776548 -6.45979 -16.2559 0.398655
lowerback 2.75555 -0.178425 3.94181
upperback 1.82444 -0.157781 0.809284
thorax 0.32045 -0.052277 -1.37494
lowerneck -9.9655 5.82153 1.96823
upperneck 9.18356 8.07221 -4.62438
head 4.65316 3.75983 -1.17224
rclavicle 2.69353e-014 -1.51076e-014
rhumerus -41.1182 -1.81669 -85.9275
rradius 33.0922
rwrist -17.2064
rhand -27.2354 23.1714
rfingers 7.12502
rthumb -0.647479 -6.80735
lclavicle 2.69353e-014 -1.51076e-014
lhumerus -35.032 8.10843 88.4823
lradius 27.031
lwrist 22.1527
lhand -28.1651 15.5265
lfingers 7.12502
lthumb -1.54534 45.5007
rfemur 7.60553 0.0688113 22.1403
rtibia 16.537
rfoot -17.0531 -15.1319
rtoes 3.48886
lfemur 1.91959 1.83192 -23.1135
ltibia 22.6316
lfoot -15.2729 18.8788
ltoes -11.0336
2169
root 9.1628 17.7535 -0.768205 -6.5313 -16.3683 0.57188
lowerback 2.81979 -0.215825 3.72704
upperback 1.79223 -0.208168 0.811694
thorax 0.249018 -0.0807897 -1.25086
lowerneck -9.99424 5.92944 2.12841
upperneck 9.32117 8.2225 -4.8035
head 4.71982 3.82526 -1.23741
rclavicle 2.68111e-014 1.98785e-014
rhumerus -41.1192 -1.79628 -85.9469
rradius 33.2333
rwrist -17.0877
rhand -27.2233 23.0464
rfingers 7.12502
rthumb -0.635713 -6.93236
lclavicle 2.68111e-014 1.98785e-014
lhumerus -35.2513 8.64988 88.3547
lradius 27.3615
lwrist 21.6144
lhand -28.2429 15.2661
lfingers 7.12502
lthumb -1.62049 45.2397
rfemur 7.5432 0.205165 21.9415
rtibia 16.6597
rfoot -16.981 -15.2252
rtoes 3.2956
lfemur 1.99547 1.8414 -23.326
ltibia 22.5737
lfoot -15.4462 18.9625
ltoes -10.8346
2170
root 9.16791 17.757 -0.761646 -6.68527 -16.5017 0.651684
lowerback 2.99455 -0.201731 3.69083
upperback 1.79015 -0.181943 0.815397
thorax 0.150448 -0.0696558 -1.22704
lowerneck -10.0098 5.98259 2.12779
upperneck 9.41164 8.30563 -4.8598
head 4.75577 3.86061 -1.2462
rclavicle -4.51117e-014 0
rhumerus -41.0898 -2.13661 -85.8015
rradius 33.306
rwrist -16.7821
rhand -27.0032 22.4007
rfingers 7.12502
rthumb -0.423199 -7.57862
lclavicle -4.51117e-014 0
lhumerus -35.3757 8.06659 88.6884
lradius 27.623
lwrist 22.2441
lhand -28.3218 15.3025
lfingers 7.12502
lthumb -1.69672 45.2755
rfemur 7.80695 0.287517 21.8429
rtibia 16.4437
rfoot -16.9306 -15.1784
rtoes 2.28016
lfemur 2.04188 1.86325 -23.4431
ltibia 22.7656
lfoot -15.6976 19.0693
ltoes -10.4897
2171
root 9.17163 17.7491 -0.76135 -6.73308 -16.6916 0.326003
lowerback 3.14649 -0.179096 4.03328
upperback 1.85978 -0.138137 0.930405
thorax 0.139397 -0.0453824 -1.3016
lowerneck -10.0289 5.97205 1.71167
upperneck 9.45286 8.31192 -4.51044
head 4.7392 3.8694 -1.07317
rclavicle -1.84249e-014 -1.19271e-014
rhumerus -40.9788 -2.16696 -85.8111
rradius 33.4109
rwrist -16.8764
rhand -26.9434 22.2973
rfingers 7.12502
rthumb -0.365386 -7.6821
lclavicle -1.84249e-014 -1.19271e-014
lhumerus -35.2982 7.46593 88.9909
lradius 27.7765
lwrist 22.8799
lhand -28.0792 16.2939
lfingers 7.12502
lthumb -1.4624 46.2687
rfemur 8.14932 0.356902 22.2083
rtibia 16.127
rfoot -16.7831 -15.0953
rtoes 1.37145
lfemur 2.01222 1.79576 -23.1172
ltibia 23.0955
lfoot -15.8798 19.267
ltoes -10.218
2172
root 9.17461 17.7384 -0.76221 -6.62619 -16.8691 -0.119988
lowerback 3.14545 -0.176498 4.46318
upperback 1.90996 -0.125792 1.0581
thorax 0.192698 -0.0351306 -1.41126
lowerneck -10.2483 5.98434 1.89196
upperneck 9.68407 8.33486 -4.69865
head 4.86371 3.86722 -1.14665
rclavicle -7.87684e-015 -2.54444e-014
rhumerus -40.9177 -2.0201 -85.9737
rradius 33.599
rwrist -17.2231
rhand -26.8325 22.5999
rfingers 7.12502
rthumb -0.258271 -7.37973
lclavicle -7.87684e-015 -2.54444e-014
lhumerus -35.1605 7.25098 89.0028
lradius 27.8993
lwrist 23.0338
lhand -28.0125 16.692
lfingers 7.12502
lthumb -1.39796 46.6671
rfemur 8.28592 0.404075 22.6842
rtibia 15.9381
rfoot -16.6098 -14.9906
rtoes 2.12154
lfemur 1.92046 1.75905 -22.6611
ltibia 23.3753
lfoot -16.1936 19.3427
ltoes -9.32723
2173
root 9.17854 17.725 -0.763293 -6.60267 -17.0205 -0.153229
lowerback 3.12113 -0.173344 4.48636
upperback 1.92944 -0.123214 1.0597
thorax 0.226524 -0.0327816 -1.4227
lowerneck -10.6375 6.15684 2.82087
upperneck 10.007 8.54805 -5.56081
head 5.11487 3.93713 -1.52182
rclavicle -1.04362e-015 -1.51076e-014
rhumerus -40.8982 -2.20841 -86.0163
rradius 33.7873
rwrist -17.0688
rhand -26.4616 22.4781
rfingers 7.12502
rthumb 0.0999539 -7.50157
lclavicle -1.04362e-015 -1.51076e-014
lhumerus -35.1343 7.05879 89.0514
lradius 28.176
lwrist 23.4241
lhand -28.1584 16.0902
lfingers 7.12502
lthumb -1.53893 46.0644
rfemur 8.2482 0.524002 22.7211
rtibia 15.962
rfoot -16.5772 -14.911
rtoes 3.62429
lfemur 1.91765 1.8159 -22.644
ltibia 23.4726
lfoot -16.3808 19.4162
ltoes -10.288
2174
root 9.17988 17.7212 -0.762914 -6.7674 -17.1892 0.0552006
lowerback 3.23838 -0.140908 4.28472
upperback 1.97401 -0.0801673 0.99419
thorax 0.208916 -0.0123293 -1.37837
lowerneck -10.5979 6.31318 2.86501
upperneck 9.91075 8.73733 -5.47757
head 5.08432 4.03941 -1.48979
rclavicle -1.09332e-015 1.59028e-015
rhumerus -40.8682 -2.3058 -86.1019
rradius 33.8925
rwrist -16.7951
rhand -26.409 22.4309
rfingers 7.12502
rthumb 0.150673 -7.54878
lclavicle -1.09332e-015 1.59028e-015
lhumerus -35.1886 6.89057 89.1956
lradius 28.535
lwrist 23.8411
lhand -27.9979 15.9581
lfingers 7.12502
lthumb -1.38385 45.9333
rfemur 8.21345 0.832944 22.5579
rtibia 16.2095
rfoot -16.7776 -15.0196
rtoes 4.43208
lfemur 2.10328 1.9517 -22.8492
ltibia 23.3817
lfoot -16.3562 19.495
ltoes -11.3961
2175
root 9.18114 17.7301 -0.757454 -6.84084 -17.3267 0.182
lowerback 3.28674 -0.111784 4.16864
upperback 1.96316 -0.0414218 0.956668
thorax 0.172604 0.00550731 -1.35313
lowerneck -10.3582 6.32178 2.50846
upperneck 9.71275 8.74313 -5.05727
head 4.94788 4.06446 -1.31568
rclavicle -1.32316e-014 -1.43125e-014
rhumerus -40.8819 -2.14556 -86.2777
rradius 33.889
rwrist -16.8806
rhand -26.6777 22.5792
rfingers 7.12502
rthumb -0.108781 -7.40047
lclavicle -1.32316e-014 -1.43125e-014
lhumerus -35.253 6.48886 89.3832
lradius 28.8438
lwrist 24.1919
lhand -27.8614 16.4596
lfingers 7.12502
lthumb -1.25205 46.4357
rfemur 8.09337 1.10035 22.4521
rtibia 16.4885
rfoot -17.0272 -15.0918
rtoes 4.8285
lfemur 2.22548 2.12697 -22.9604
ltibia 23.2522
lfoot -16.2236 19.4644
ltoes -11.0868
2176
root 9.18463 17.7341 -0.752424 -6.79808 -17.386 0.0136995
lowerback 3.3487 -0.123278 4.35107
upperback 1.91562 -0.04674 0.988092
thorax 0.0891412 0.00189912 -1.42269
lowerneck -10.2618 6.2829 2.27115
upperneck 9.66254 8.69109 -4.78537
head 4.89132 4.0503 -1.20386
rclavicle -2.41772e-014 1.27222e-014
rhumerus -41.0098 -2.1776 -86.354
rradius 34.0459
rwrist -16.9931
rhand -26.859 22.2503
rfingers 7.12502
rthumb -0.283885 -7.72922
lclavicle -2.41772e-014 1.27222e-014
lhumerus -35.3634 5.98409 89.587
lradius 29.1325
lwrist 24.5731
lhand -28.2369 16.2201
lfingers 7.12502
lthumb -1.61476 46.1937
rfemur 8.01325 1.07979 22.6031
rtibia 16.6264
rfoot -17.0369 -15.0579
rtoes 4.36441
lfemur 2.28414 2.24322 -22.7725
ltibia 23.2095
lfoot -16.1079 19.3827
ltoes -11.4106
2177
root 9.18732 17.729 -0.75135 -6.7443 -17.4269 -0.31184
lowerback 3.45041 -0.150924 4.66445
upperback 1.87638 -0.0673391 1.07819
thorax -0.00868285 -0.00918285 -1.50458
lowerneck -10.1488 6.27148 2.07333
upperneck 9.65722 8.68292 -4.59717
head 4.85328 4.05309 -1.12009
rclavicle 2.27111e-014 6.36111e-015
rhumerus -41.1736 -2.22315 -86.3882
rradius 34.2975
rwrist -17.0652
rhand -27.0421 22.0137
rfingers 7.12502
rthumb -0.460752 -7.96557
lclavicle 2.27111e-014 6.36111e-015
lhumerus -35.4745 5.69303 89.7567
lradius 29.3504
lwrist 24.6806
lhand -28.4629 16.0635
lfingers 7.12502
lthumb -1.83294 46.0353
rfemur 8.10032 0.956851 22.9284
rtibia 16.5608
rfoot -16.9497 -15.0068
rtoes 3.48361
lfemur 2.29942 2.39084 -22.3969
ltibia 23.3029
lfoot -16.2192 19.2458
ltoes -11.9256
2178
root 9.18933 17.7197 -0.746454 -6.60073 -17.4257 -0.19287
lowerback 3.19448 -0.145338 4.52326
upperback 1.7973 -0.0758106 1.09435
thorax 0.0523668 -0.0141981 -1.40905
lowerneck -9.87278 6.25473 1.79758
upperneck 9.66359 8.68104 -4.41338
head 4.78897 4.05828 -1.03019
rclavicle 3.63527e-014 -7.95139e-016
rhumerus -41.269 -2.15597 -86.3717
rradius 34.3529
rwrist -17.15
rhand -27.1556 22.1718
rfingers 7.12502
rthumb -0.570418 -7.80719
lclavicle 3.63527e-014 -7.95139e-016
lhumerus -35.528 5.40549 89.9703
lradius 29.459
lwrist 24.5589
lhand -28.5234 16.3598
lfingers 7.12502
lthumb -1.89144 46.3312
rfemur 8.06965 0.807693 22.7503
rtibia 16.3385
rfoot -16.8156 -14.8426
rtoes 2.75397
lfemur 2.03701 2.50704 -22.526
ltibia 23.4866
lfoot -16.4337 19.1943
ltoes -11.8025
2179
root 9.19094 17.7209 -0.738487 -6.51393 -17.4306 0.0611292
lowerback 2.93332 -0.118875 4.2574
upperback 1.7522 -0.0602818 1.06613
thorax 0.152548 -0.00669172 -1.29011
lowerneck -9.57235 6.24097 1.27179
upperneck 9.5368 8.67086 -3.89756
head 4.6531 4.07346 -0.804798
rclavicle 3.23522e-014 -6.36111e-015
rhumerus -41.2927 -2.11892 -86.3554
rradius 34.3421
rwrist -17.1897
rhand -27.3105 22.2125
rfingers 7.12502
rthumb -0.719968 -7.76602
lclavicle 3.23522e-014 -6.36111e-015
lhumerus -35.502 5.13734 90.1617
lradius 29.5323
lwrist 24.5645
lhand -28.5715 16.1521
lfingers 7.12502
lthumb -1.9379 46.1231
rfemur 8.06684 0.684592 22.4252
rtibia 16.0654
rfoot -16.5256 -14.732
rtoes 2.49625
lfemur 1.7656 2.52972 -22.824
ltibia 23.6872
lfoot -16.3941 19.3049
ltoes -11.4504
